<mxfile host="app.diagrams.net" modified="2024-03-21T12:38:15.962Z" agent="Mozilla/5.0 (Windows NT 10.0; Win64; x64; rv:104.0) Gecko/20100101 Firefox/104.0" etag="sHR9AbkvShNN0hHTvOkV" version="24.0.7" type="device">
  <diagram name="Page-1" id="TaH5sVrpPcm7TCrk0EPK">
    <mxGraphModel dx="-934" dy="-494" grid="1" gridSize="10" guides="1" tooltips="1" connect="1" arrows="1" fold="1" page="1" pageScale="1" pageWidth="850" pageHeight="1100" math="0" shadow="0">
      <root>
        <mxCell id="0" />
        <mxCell id="1" parent="0" />
        <mxCell id="h0vjKCKwFResc2zQdDMk-1" value="" style="edgeStyle=orthogonalEdgeStyle;rounded=0;orthogonalLoop=1;jettySize=auto;html=1;" edge="1" parent="1">
          <mxGeometry relative="1" as="geometry">
            <mxPoint x="4110.3" y="2340" as="targetPoint" />
          </mxGeometry>
        </mxCell>
        <mxCell id="h0vjKCKwFResc2zQdDMk-2" value="" style="edgeStyle=orthogonalEdgeStyle;rounded=0;orthogonalLoop=1;jettySize=auto;html=1;exitX=1;exitY=0.5;exitDx=0;exitDy=0;" edge="1" parent="1">
          <mxGeometry relative="1" as="geometry">
            <mxPoint x="2490" y="1620" as="sourcePoint" />
          </mxGeometry>
        </mxCell>
        <mxCell id="h0vjKCKwFResc2zQdDMk-3" value="&lt;font style=&quot;font-size: 10px;&quot;&gt;&lt;i&gt;(&quot;Unavail.&quot;&lt;/i&gt;&lt;/font&gt;)" style="edgeLabel;html=1;align=center;verticalAlign=middle;resizable=0;points=[];" vertex="1" connectable="0" parent="h0vjKCKwFResc2zQdDMk-2">
          <mxGeometry x="0.13" y="1" relative="1" as="geometry">
            <mxPoint x="-11" as="offset" />
          </mxGeometry>
        </mxCell>
        <mxCell id="h0vjKCKwFResc2zQdDMk-4" style="edgeStyle=orthogonalEdgeStyle;rounded=0;orthogonalLoop=1;jettySize=auto;html=1;exitX=0.75;exitY=0;exitDx=0;exitDy=0;entryX=0;entryY=0.5;entryDx=0;entryDy=0;" edge="1" parent="1">
          <mxGeometry relative="1" as="geometry">
            <mxPoint x="2460" y="1600" as="sourcePoint" />
            <Array as="points">
              <mxPoint x="2460.1000000000004" y="1580" />
              <mxPoint x="2540.1000000000004" y="1580" />
              <mxPoint x="2540.1000000000004" y="1490" />
            </Array>
          </mxGeometry>
        </mxCell>
        <mxCell id="h0vjKCKwFResc2zQdDMk-5" value="&lt;font style=&quot;font-size: 10px;&quot;&gt;&lt;i&gt;(&quot;Canceled&quot;)&lt;/i&gt;&lt;/font&gt;" style="edgeLabel;html=1;align=center;verticalAlign=middle;resizable=0;points=[];" vertex="1" connectable="0" parent="h0vjKCKwFResc2zQdDMk-4">
          <mxGeometry x="-0.6068" y="2" relative="1" as="geometry">
            <mxPoint x="17" as="offset" />
          </mxGeometry>
        </mxCell>
        <mxCell id="h0vjKCKwFResc2zQdDMk-6" value="" style="edgeStyle=orthogonalEdgeStyle;rounded=0;orthogonalLoop=1;jettySize=auto;html=1;" edge="1" parent="1">
          <mxGeometry relative="1" as="geometry">
            <mxPoint x="2630.014285714286" y="1570" as="targetPoint" />
          </mxGeometry>
        </mxCell>
        <mxCell id="h0vjKCKwFResc2zQdDMk-7" value="&lt;font style=&quot;font-size: 10px;&quot;&gt;&lt;i&gt;(Deadline passed)&lt;br&gt;&lt;/i&gt;&lt;/font&gt;" style="edgeLabel;html=1;align=center;verticalAlign=middle;resizable=0;points=[];" vertex="1" connectable="0" parent="h0vjKCKwFResc2zQdDMk-6">
          <mxGeometry x="-0.27" relative="1" as="geometry">
            <mxPoint y="6" as="offset" />
          </mxGeometry>
        </mxCell>
        <mxCell id="h0vjKCKwFResc2zQdDMk-8" value="" style="edgeStyle=orthogonalEdgeStyle;rounded=0;orthogonalLoop=1;jettySize=auto;html=1;" edge="1" parent="1">
          <mxGeometry relative="1" as="geometry">
            <mxPoint x="2630.085714285715" y="1510" as="targetPoint" />
          </mxGeometry>
        </mxCell>
        <mxCell id="h0vjKCKwFResc2zQdDMk-9" style="edgeStyle=orthogonalEdgeStyle;rounded=0;orthogonalLoop=1;jettySize=auto;html=1;exitX=0.5;exitY=0;exitDx=0;exitDy=0;entryX=0.5;entryY=1;entryDx=0;entryDy=0;" edge="1" parent="1">
          <mxGeometry relative="1" as="geometry">
            <mxPoint x="2430" y="1600" as="sourcePoint" />
          </mxGeometry>
        </mxCell>
        <mxCell id="h0vjKCKwFResc2zQdDMk-10" value="&lt;div style=&quot;font-size: 10px;&quot;&gt;&lt;font style=&quot;font-size: 10px;&quot;&gt;&lt;i&gt;(&quot;Completed&quot;)&lt;/i&gt;&lt;/font&gt;&lt;/div&gt;" style="edgeLabel;html=1;align=center;verticalAlign=middle;resizable=0;points=[];" vertex="1" connectable="0" parent="h0vjKCKwFResc2zQdDMk-9">
          <mxGeometry x="0.6548" y="1" relative="1" as="geometry">
            <mxPoint as="offset" />
          </mxGeometry>
        </mxCell>
        <mxCell id="h0vjKCKwFResc2zQdDMk-11" style="edgeStyle=orthogonalEdgeStyle;rounded=0;orthogonalLoop=1;jettySize=auto;html=1;exitX=0.5;exitY=1;exitDx=0;exitDy=0;entryX=0.5;entryY=0;entryDx=0;entryDy=0;" edge="1" parent="1" source="h0vjKCKwFResc2zQdDMk-12" target="h0vjKCKwFResc2zQdDMk-15">
          <mxGeometry relative="1" as="geometry" />
        </mxCell>
        <mxCell id="h0vjKCKwFResc2zQdDMk-12" value="&lt;div&gt;&lt;b&gt;INIT&lt;/b&gt;&lt;b&gt;:&lt;/b&gt;&lt;b&gt; &lt;/b&gt;&lt;br&gt;&lt;/div&gt;&amp;nbsp;Initialize local variables and setup" style="rounded=0;whiteSpace=wrap;html=1;" vertex="1" parent="1">
          <mxGeometry x="4770.3" y="2730" width="120" height="60" as="geometry" />
        </mxCell>
        <mxCell id="h0vjKCKwFResc2zQdDMk-13" value="" style="edgeStyle=orthogonalEdgeStyle;rounded=0;orthogonalLoop=1;jettySize=auto;html=1;exitX=1;exitY=0.5;exitDx=0;exitDy=0;entryX=0;entryY=0.5;entryDx=0;entryDy=0;" edge="1" parent="1" source="h0vjKCKwFResc2zQdDMk-15" target="h0vjKCKwFResc2zQdDMk-30">
          <mxGeometry relative="1" as="geometry">
            <mxPoint x="4880.300000000001" y="2799" as="sourcePoint" />
          </mxGeometry>
        </mxCell>
        <mxCell id="h0vjKCKwFResc2zQdDMk-14" value="&lt;div style=&quot;font-size: 10px;&quot;&gt;&lt;font style=&quot;font-size: 10px;&quot;&gt;&lt;i&gt;(Receive&lt;/i&gt;&lt;/font&gt;&lt;/div&gt;&lt;div style=&quot;font-size: 10px;&quot;&gt;&lt;font style=&quot;font-size: 10px;&quot;&gt;&lt;i&gt;REGISTER&lt;/i&gt;&lt;/font&gt;&lt;/div&gt;&lt;div style=&quot;font-size: 10px;&quot;&gt;&lt;font style=&quot;font-size: 10px;&quot;&gt;&lt;i&gt;from user)&lt;br&gt;&lt;/i&gt;&lt;/font&gt;&lt;/div&gt;" style="edgeLabel;html=1;align=center;verticalAlign=middle;resizable=0;points=[];" vertex="1" connectable="0" parent="h0vjKCKwFResc2zQdDMk-13">
          <mxGeometry x="-0.0607" y="-1" relative="1" as="geometry">
            <mxPoint x="-1" y="-2" as="offset" />
          </mxGeometry>
        </mxCell>
        <mxCell id="h0vjKCKwFResc2zQdDMk-15" value="&lt;b&gt;WORKING&lt;/b&gt;: Await interaction from Worker, Requester, or TSC" style="rounded=0;whiteSpace=wrap;html=1;" vertex="1" parent="1">
          <mxGeometry x="4770.3" y="2840" width="120" height="60" as="geometry" />
        </mxCell>
        <mxCell id="h0vjKCKwFResc2zQdDMk-16" value="" style="edgeStyle=orthogonalEdgeStyle;rounded=0;orthogonalLoop=1;jettySize=auto;html=1;" edge="1" parent="1">
          <mxGeometry relative="1" as="geometry">
            <mxPoint x="5760.299999999999" y="3130" as="targetPoint" />
          </mxGeometry>
        </mxCell>
        <mxCell id="h0vjKCKwFResc2zQdDMk-17" value="" style="edgeStyle=orthogonalEdgeStyle;rounded=0;orthogonalLoop=1;jettySize=auto;html=1;exitX=1;exitY=0.5;exitDx=0;exitDy=0;" edge="1" parent="1">
          <mxGeometry relative="1" as="geometry">
            <mxPoint x="4140" y="2410" as="sourcePoint" />
          </mxGeometry>
        </mxCell>
        <mxCell id="h0vjKCKwFResc2zQdDMk-18" value="&lt;font style=&quot;font-size: 10px;&quot;&gt;&lt;i&gt;(&quot;Unavail.&quot;&lt;/i&gt;&lt;/font&gt;)" style="edgeLabel;html=1;align=center;verticalAlign=middle;resizable=0;points=[];" vertex="1" connectable="0" parent="h0vjKCKwFResc2zQdDMk-17">
          <mxGeometry x="0.13" y="1" relative="1" as="geometry">
            <mxPoint x="-11" as="offset" />
          </mxGeometry>
        </mxCell>
        <mxCell id="h0vjKCKwFResc2zQdDMk-19" style="edgeStyle=orthogonalEdgeStyle;rounded=0;orthogonalLoop=1;jettySize=auto;html=1;exitX=0.75;exitY=0;exitDx=0;exitDy=0;entryX=0;entryY=0.5;entryDx=0;entryDy=0;" edge="1" parent="1">
          <mxGeometry relative="1" as="geometry">
            <mxPoint x="4110" y="2390" as="sourcePoint" />
            <Array as="points">
              <mxPoint x="4110.1" y="2370" />
              <mxPoint x="4190.1" y="2370" />
              <mxPoint x="4190.1" y="2280" />
            </Array>
          </mxGeometry>
        </mxCell>
        <mxCell id="h0vjKCKwFResc2zQdDMk-20" value="&lt;font style=&quot;font-size: 10px;&quot;&gt;&lt;i&gt;(&quot;Canceled&quot;)&lt;/i&gt;&lt;/font&gt;" style="edgeLabel;html=1;align=center;verticalAlign=middle;resizable=0;points=[];" vertex="1" connectable="0" parent="h0vjKCKwFResc2zQdDMk-19">
          <mxGeometry x="-0.6068" y="2" relative="1" as="geometry">
            <mxPoint x="17" as="offset" />
          </mxGeometry>
        </mxCell>
        <mxCell id="h0vjKCKwFResc2zQdDMk-21" value="" style="edgeStyle=orthogonalEdgeStyle;rounded=0;orthogonalLoop=1;jettySize=auto;html=1;" edge="1" parent="1">
          <mxGeometry relative="1" as="geometry">
            <mxPoint x="4280.014285714286" y="2360" as="targetPoint" />
          </mxGeometry>
        </mxCell>
        <mxCell id="h0vjKCKwFResc2zQdDMk-22" value="&lt;font style=&quot;font-size: 10px;&quot;&gt;&lt;i&gt;(Deadline passed)&lt;br&gt;&lt;/i&gt;&lt;/font&gt;" style="edgeLabel;html=1;align=center;verticalAlign=middle;resizable=0;points=[];" vertex="1" connectable="0" parent="h0vjKCKwFResc2zQdDMk-21">
          <mxGeometry x="-0.27" relative="1" as="geometry">
            <mxPoint y="6" as="offset" />
          </mxGeometry>
        </mxCell>
        <mxCell id="h0vjKCKwFResc2zQdDMk-23" value="" style="edgeStyle=orthogonalEdgeStyle;rounded=0;orthogonalLoop=1;jettySize=auto;html=1;" edge="1" parent="1">
          <mxGeometry relative="1" as="geometry">
            <mxPoint x="4280.085714285715" y="2300" as="targetPoint" />
          </mxGeometry>
        </mxCell>
        <mxCell id="h0vjKCKwFResc2zQdDMk-24" style="edgeStyle=orthogonalEdgeStyle;rounded=0;orthogonalLoop=1;jettySize=auto;html=1;exitX=0.5;exitY=0;exitDx=0;exitDy=0;entryX=0.5;entryY=1;entryDx=0;entryDy=0;" edge="1" parent="1">
          <mxGeometry relative="1" as="geometry">
            <mxPoint x="4080" y="2390" as="sourcePoint" />
          </mxGeometry>
        </mxCell>
        <mxCell id="h0vjKCKwFResc2zQdDMk-25" value="&lt;div style=&quot;font-size: 10px;&quot;&gt;&lt;font style=&quot;font-size: 10px;&quot;&gt;&lt;i&gt;(&quot;Completed&quot;)&lt;/i&gt;&lt;/font&gt;&lt;/div&gt;" style="edgeLabel;html=1;align=center;verticalAlign=middle;resizable=0;points=[];" vertex="1" connectable="0" parent="h0vjKCKwFResc2zQdDMk-24">
          <mxGeometry x="0.6548" y="1" relative="1" as="geometry">
            <mxPoint as="offset" />
          </mxGeometry>
        </mxCell>
        <mxCell id="h0vjKCKwFResc2zQdDMk-26" value="" style="edgeStyle=orthogonalEdgeStyle;rounded=0;orthogonalLoop=1;jettySize=auto;html=1;" edge="1" parent="1" source="h0vjKCKwFResc2zQdDMk-30" target="h0vjKCKwFResc2zQdDMk-32">
          <mxGeometry relative="1" as="geometry" />
        </mxCell>
        <mxCell id="h0vjKCKwFResc2zQdDMk-27" value="&lt;font style=&quot;font-size: 10px;&quot;&gt;&lt;i&gt;(No)&lt;/i&gt;&lt;/font&gt;" style="edgeLabel;html=1;align=center;verticalAlign=middle;resizable=0;points=[];" vertex="1" connectable="0" parent="h0vjKCKwFResc2zQdDMk-26">
          <mxGeometry x="-0.1149" y="-1" relative="1" as="geometry">
            <mxPoint x="-2" y="-3" as="offset" />
          </mxGeometry>
        </mxCell>
        <mxCell id="h0vjKCKwFResc2zQdDMk-28" value="" style="edgeStyle=orthogonalEdgeStyle;rounded=0;orthogonalLoop=1;jettySize=auto;html=1;" edge="1" parent="1" source="h0vjKCKwFResc2zQdDMk-30" target="h0vjKCKwFResc2zQdDMk-36">
          <mxGeometry relative="1" as="geometry" />
        </mxCell>
        <mxCell id="h0vjKCKwFResc2zQdDMk-29" value="&lt;font style=&quot;font-size: 10px;&quot;&gt;&lt;i&gt;(Yes)&lt;/i&gt;&lt;/font&gt;" style="edgeLabel;html=1;align=center;verticalAlign=middle;resizable=0;points=[];" vertex="1" connectable="0" parent="h0vjKCKwFResc2zQdDMk-28">
          <mxGeometry x="0.4714" relative="1" as="geometry">
            <mxPoint y="3" as="offset" />
          </mxGeometry>
        </mxCell>
        <mxCell id="h0vjKCKwFResc2zQdDMk-30" value="Check whether RegistrationDeadline has passed" style="rounded=0;whiteSpace=wrap;html=1;" vertex="1" parent="1">
          <mxGeometry x="4970.3" y="2840" width="120" height="60" as="geometry" />
        </mxCell>
        <mxCell id="h0vjKCKwFResc2zQdDMk-31" value="" style="edgeStyle=orthogonalEdgeStyle;rounded=0;orthogonalLoop=1;jettySize=auto;html=1;" edge="1" parent="1" source="h0vjKCKwFResc2zQdDMk-32" target="h0vjKCKwFResc2zQdDMk-34">
          <mxGeometry relative="1" as="geometry" />
        </mxCell>
        <mxCell id="h0vjKCKwFResc2zQdDMk-32" value="Generate key-pair and register user as &quot;WORKER&quot; or &quot;REQUESTER&quot;" style="rounded=0;whiteSpace=wrap;html=1;" vertex="1" parent="1">
          <mxGeometry x="5130.3" y="2840" width="120" height="60" as="geometry" />
        </mxCell>
        <mxCell id="h0vjKCKwFResc2zQdDMk-33" style="edgeStyle=orthogonalEdgeStyle;rounded=0;orthogonalLoop=1;jettySize=auto;html=1;exitX=0.5;exitY=0;exitDx=0;exitDy=0;entryX=0.75;entryY=0;entryDx=0;entryDy=0;" edge="1" parent="1" source="h0vjKCKwFResc2zQdDMk-34" target="h0vjKCKwFResc2zQdDMk-15">
          <mxGeometry relative="1" as="geometry">
            <Array as="points">
              <mxPoint x="5190.3" y="2750" />
              <mxPoint x="4910.3" y="2750" />
              <mxPoint x="4910.3" y="2800" />
              <mxPoint x="4860.3" y="2800" />
            </Array>
          </mxGeometry>
        </mxCell>
        <mxCell id="h0vjKCKwFResc2zQdDMk-34" value="Send REGISTERED with key-pair information" style="rounded=0;whiteSpace=wrap;html=1;" vertex="1" parent="1">
          <mxGeometry x="5130.3" y="2770" width="120" height="51" as="geometry" />
        </mxCell>
        <mxCell id="h0vjKCKwFResc2zQdDMk-35" style="edgeStyle=orthogonalEdgeStyle;rounded=0;orthogonalLoop=1;jettySize=auto;html=1;exitX=0.5;exitY=0;exitDx=0;exitDy=0;entryX=0.75;entryY=0;entryDx=0;entryDy=0;" edge="1" parent="1" source="h0vjKCKwFResc2zQdDMk-36" target="h0vjKCKwFResc2zQdDMk-15">
          <mxGeometry relative="1" as="geometry">
            <Array as="points">
              <mxPoint x="5030.3" y="2750" />
              <mxPoint x="4910.3" y="2750" />
              <mxPoint x="4910.3" y="2800" />
              <mxPoint x="4860.3" y="2800" />
            </Array>
          </mxGeometry>
        </mxCell>
        <mxCell id="h0vjKCKwFResc2zQdDMk-36" value="Send NOT_REGISTERED" style="rounded=0;whiteSpace=wrap;html=1;" vertex="1" parent="1">
          <mxGeometry x="4970.3" y="2770" width="120" height="40" as="geometry" />
        </mxCell>
      </root>
    </mxGraphModel>
  </diagram>
</mxfile>
